<mxfile host="app.diagrams.net" modified="2023-05-30T22:09:19.309Z" agent="Mozilla/5.0 (Windows NT 10.0; Win64; x64) AppleWebKit/537.36 (KHTML, like Gecko) Chrome/113.0.0.0 Safari/537.36" etag="GUQ6TADAGIBRQ0xzphiC" version="21.3.6" type="device" pages="2">
  <diagram name="helper" id="AO3PzVxPkSk40unCkHxe">
    <mxGraphModel dx="5607" dy="2560" grid="1" gridSize="10" guides="1" tooltips="1" connect="1" arrows="1" fold="1" page="1" pageScale="1" pageWidth="827" pageHeight="1169" math="0" shadow="0">
      <root>
        <mxCell id="0" />
        <mxCell id="1" parent="0" />
        <mxCell id="DPbfkmQDcSMVqxTIG8kD-4" value="True" style="edgeStyle=orthogonalEdgeStyle;rounded=0;orthogonalLoop=1;jettySize=auto;html=1;exitX=0.5;exitY=1;exitDx=0;exitDy=0;entryX=0.5;entryY=0;entryDx=0;entryDy=0;" parent="1" source="DPbfkmQDcSMVqxTIG8kD-2" target="DPbfkmQDcSMVqxTIG8kD-3" edge="1">
          <mxGeometry relative="1" as="geometry" />
        </mxCell>
        <mxCell id="DPbfkmQDcSMVqxTIG8kD-2" value="&lt;b&gt;Initialize&lt;/b&gt;: n&amp;nbsp;" style="rounded=0;whiteSpace=wrap;html=1;" parent="1" vertex="1">
          <mxGeometry x="340" y="90" width="200" height="100" as="geometry" />
        </mxCell>
        <mxCell id="DPbfkmQDcSMVqxTIG8kD-6" style="edgeStyle=orthogonalEdgeStyle;rounded=0;orthogonalLoop=1;jettySize=auto;html=1;entryX=0.5;entryY=0;entryDx=0;entryDy=0;" parent="1" source="DPbfkmQDcSMVqxTIG8kD-3" target="DPbfkmQDcSMVqxTIG8kD-5" edge="1">
          <mxGeometry relative="1" as="geometry" />
        </mxCell>
        <mxCell id="DPbfkmQDcSMVqxTIG8kD-3" value="&lt;font style=&quot;font-size: 12px;&quot;&gt;pq.pop()&lt;br&gt;stack_[n] = true&lt;br&gt;visited_childs = vector&amp;lt;bool&amp;gt;(number_of_tasks+1, false)&lt;br&gt;visited_parents = vector&amp;lt;bool&amp;gt;(number_of_tasks+1, false)&lt;/font&gt;" style="rounded=0;whiteSpace=wrap;html=1;" parent="1" vertex="1">
          <mxGeometry x="340" y="280" width="200" height="100" as="geometry" />
        </mxCell>
        <mxCell id="DPbfkmQDcSMVqxTIG8kD-9" value="(am_I_a_bottleneck(n))" style="edgeStyle=orthogonalEdgeStyle;rounded=0;orthogonalLoop=1;jettySize=auto;html=1;exitX=0;exitY=0.5;exitDx=0;exitDy=0;" parent="1" source="DPbfkmQDcSMVqxTIG8kD-5" target="DPbfkmQDcSMVqxTIG8kD-7" edge="1">
          <mxGeometry relative="1" as="geometry" />
        </mxCell>
        <mxCell id="DPbfkmQDcSMVqxTIG8kD-10" value="~(am_I_a_bottleneck(n))" style="edgeStyle=orthogonalEdgeStyle;rounded=0;orthogonalLoop=1;jettySize=auto;html=1;exitX=1;exitY=0.5;exitDx=0;exitDy=0;entryX=1;entryY=0.25;entryDx=0;entryDy=0;" parent="1" source="DPbfkmQDcSMVqxTIG8kD-5" target="DPbfkmQDcSMVqxTIG8kD-8" edge="1">
          <mxGeometry relative="1" as="geometry">
            <Array as="points">
              <mxPoint x="610" y="520" />
              <mxPoint x="610" y="685" />
            </Array>
            <mxPoint as="offset" />
          </mxGeometry>
        </mxCell>
        <mxCell id="DPbfkmQDcSMVqxTIG8kD-5" value="NULL" style="rounded=0;whiteSpace=wrap;html=1;" parent="1" vertex="1">
          <mxGeometry x="340" y="470" width="200" height="100" as="geometry" />
        </mxCell>
        <mxCell id="DPbfkmQDcSMVqxTIG8kD-13" value="True" style="edgeStyle=orthogonalEdgeStyle;rounded=0;orthogonalLoop=1;jettySize=auto;html=1;entryX=0;entryY=0.5;entryDx=0;entryDy=0;" parent="1" source="DPbfkmQDcSMVqxTIG8kD-7" target="DPbfkmQDcSMVqxTIG8kD-8" edge="1">
          <mxGeometry relative="1" as="geometry">
            <Array as="points">
              <mxPoint x="80" y="710" />
            </Array>
          </mxGeometry>
        </mxCell>
        <mxCell id="DPbfkmQDcSMVqxTIG8kD-7" value="cout &amp;lt;&amp;lt; n &amp;lt;&amp;lt; endl" style="rounded=0;whiteSpace=wrap;html=1;" parent="1" vertex="1">
          <mxGeometry x="-20" y="470" width="200" height="100" as="geometry" />
        </mxCell>
        <mxCell id="DPbfkmQDcSMVqxTIG8kD-16" value="~(i &amp;lt; childs[n].size(); i++)" style="edgeStyle=orthogonalEdgeStyle;rounded=0;orthogonalLoop=1;jettySize=auto;html=1;entryX=0.5;entryY=0;entryDx=0;entryDy=0;exitX=0;exitY=0.5;exitDx=0;exitDy=0;" parent="1" source="DPbfkmQDcSMVqxTIG8kD-29" target="DPbfkmQDcSMVqxTIG8kD-15" edge="1">
          <mxGeometry relative="1" as="geometry" />
        </mxCell>
        <mxCell id="DPbfkmQDcSMVqxTIG8kD-17" value="(i &amp;lt; childs[n].size(); ++i)" style="edgeStyle=orthogonalEdgeStyle;rounded=0;orthogonalLoop=1;jettySize=auto;html=1;exitX=1;exitY=0.75;exitDx=0;exitDy=0;" parent="1" source="DPbfkmQDcSMVqxTIG8kD-29" target="DPbfkmQDcSMVqxTIG8kD-14" edge="1">
          <mxGeometry relative="1" as="geometry" />
        </mxCell>
        <mxCell id="DPbfkmQDcSMVqxTIG8kD-30" value="True" style="edgeStyle=orthogonalEdgeStyle;rounded=0;orthogonalLoop=1;jettySize=auto;html=1;entryX=0.5;entryY=0;entryDx=0;entryDy=0;" parent="1" source="DPbfkmQDcSMVqxTIG8kD-8" target="DPbfkmQDcSMVqxTIG8kD-29" edge="1">
          <mxGeometry relative="1" as="geometry" />
        </mxCell>
        <mxCell id="DPbfkmQDcSMVqxTIG8kD-8" value="i = 0" style="rounded=0;whiteSpace=wrap;html=1;" parent="1" vertex="1">
          <mxGeometry x="340" y="660" width="200" height="100" as="geometry" />
        </mxCell>
        <mxCell id="DPbfkmQDcSMVqxTIG8kD-23" value="(stack_[visit] == false &amp;amp;&amp;amp; (degree[visit]==(int)parents[visit].size()))" style="edgeStyle=orthogonalEdgeStyle;rounded=0;orthogonalLoop=1;jettySize=auto;html=1;exitX=0.5;exitY=1;exitDx=0;exitDy=0;entryX=0.5;entryY=0;entryDx=0;entryDy=0;" parent="1" source="DPbfkmQDcSMVqxTIG8kD-14" target="DPbfkmQDcSMVqxTIG8kD-22" edge="1">
          <mxGeometry relative="1" as="geometry" />
        </mxCell>
        <mxCell id="DPbfkmQDcSMVqxTIG8kD-26" value="~(stack_[visit] == false &amp;amp;&amp;amp; (degree[visit]==(int)parents[visit].size()))" style="edgeStyle=orthogonalEdgeStyle;rounded=0;orthogonalLoop=1;jettySize=auto;html=1;entryX=1;entryY=0.75;entryDx=0;entryDy=0;" parent="1" source="DPbfkmQDcSMVqxTIG8kD-14" edge="1">
          <mxGeometry relative="1" as="geometry">
            <mxPoint x="540" y="890" as="targetPoint" />
            <Array as="points">
              <mxPoint x="810" y="1085" />
              <mxPoint x="810" y="890" />
            </Array>
          </mxGeometry>
        </mxCell>
        <mxCell id="DPbfkmQDcSMVqxTIG8kD-14" value="int visit = childs[n][i]&lt;br&gt;degree[visit]++" style="rounded=0;whiteSpace=wrap;html=1;" parent="1" vertex="1">
          <mxGeometry x="540" y="1035" width="200" height="100" as="geometry" />
        </mxCell>
        <mxCell id="DPbfkmQDcSMVqxTIG8kD-19" value="(pq.empty())" style="edgeStyle=orthogonalEdgeStyle;rounded=0;orthogonalLoop=1;jettySize=auto;html=1;entryX=0.5;entryY=0;entryDx=0;entryDy=0;" parent="1" source="DPbfkmQDcSMVqxTIG8kD-15" target="DPbfkmQDcSMVqxTIG8kD-18" edge="1">
          <mxGeometry relative="1" as="geometry" />
        </mxCell>
        <mxCell id="DPbfkmQDcSMVqxTIG8kD-21" value="~(pq.empty())" style="edgeStyle=orthogonalEdgeStyle;rounded=0;orthogonalLoop=1;jettySize=auto;html=1;entryX=0.5;entryY=0;entryDx=0;entryDy=0;" parent="1" source="DPbfkmQDcSMVqxTIG8kD-15" target="DPbfkmQDcSMVqxTIG8kD-20" edge="1">
          <mxGeometry relative="1" as="geometry" />
        </mxCell>
        <mxCell id="DPbfkmQDcSMVqxTIG8kD-15" value="NULL" style="rounded=0;whiteSpace=wrap;html=1;" parent="1" vertex="1">
          <mxGeometry x="140" y="1035" width="200" height="100" as="geometry" />
        </mxCell>
        <mxCell id="DPbfkmQDcSMVqxTIG8kD-18" value="return" style="rounded=0;whiteSpace=wrap;html=1;" parent="1" vertex="1">
          <mxGeometry x="-234" y="1255" width="200" height="100" as="geometry" />
        </mxCell>
        <mxCell id="DPbfkmQDcSMVqxTIG8kD-33" value="True" style="edgeStyle=orthogonalEdgeStyle;rounded=0;orthogonalLoop=1;jettySize=auto;html=1;entryX=1;entryY=0.5;entryDx=0;entryDy=0;" parent="1" source="DPbfkmQDcSMVqxTIG8kD-20" target="DPbfkmQDcSMVqxTIG8kD-18" edge="1">
          <mxGeometry relative="1" as="geometry" />
        </mxCell>
        <mxCell id="DPbfkmQDcSMVqxTIG8kD-20" value="helper_function(pq.top())" style="rounded=0;whiteSpace=wrap;html=1;" parent="1" vertex="1">
          <mxGeometry x="140" y="1255" width="200" height="100" as="geometry" />
        </mxCell>
        <mxCell id="DPbfkmQDcSMVqxTIG8kD-31" value="True" style="edgeStyle=orthogonalEdgeStyle;rounded=0;orthogonalLoop=1;jettySize=auto;html=1;exitX=1;exitY=0.5;exitDx=0;exitDy=0;entryX=0.999;entryY=0.15;entryDx=0;entryDy=0;entryPerimeter=0;" parent="1" source="DPbfkmQDcSMVqxTIG8kD-22" target="DPbfkmQDcSMVqxTIG8kD-29" edge="1">
          <mxGeometry relative="1" as="geometry">
            <Array as="points">
              <mxPoint x="1010" y="1305" />
              <mxPoint x="1010" y="865" />
            </Array>
          </mxGeometry>
        </mxCell>
        <mxCell id="DPbfkmQDcSMVqxTIG8kD-22" value="pq.push(visit)" style="rounded=0;whiteSpace=wrap;html=1;" parent="1" vertex="1">
          <mxGeometry x="540" y="1255" width="200" height="100" as="geometry" />
        </mxCell>
        <mxCell id="DPbfkmQDcSMVqxTIG8kD-29" value="NULL" style="rounded=0;whiteSpace=wrap;html=1;" parent="1" vertex="1">
          <mxGeometry x="340" y="850" width="200" height="100" as="geometry" />
        </mxCell>
        <mxCell id="DPbfkmQDcSMVqxTIG8kD-38" value="1" style="ellipse;whiteSpace=wrap;html=1;fillColor=#050505;fontColor=#FFFFFF;" parent="1" vertex="1">
          <mxGeometry x="510" y="90" width="30" height="30" as="geometry" />
        </mxCell>
        <mxCell id="DPbfkmQDcSMVqxTIG8kD-52" value="2" style="ellipse;whiteSpace=wrap;html=1;fillColor=#050505;fontColor=#FFFFFF;" parent="1" vertex="1">
          <mxGeometry x="510" y="280" width="30" height="30" as="geometry" />
        </mxCell>
        <mxCell id="DPbfkmQDcSMVqxTIG8kD-53" value="3" style="ellipse;whiteSpace=wrap;html=1;fillColor=#050505;fontColor=#FFFFFF;" parent="1" vertex="1">
          <mxGeometry x="510" y="470" width="30" height="30" as="geometry" />
        </mxCell>
        <mxCell id="DPbfkmQDcSMVqxTIG8kD-54" value="4" style="ellipse;whiteSpace=wrap;html=1;fillColor=#050505;fontColor=#FFFFFF;" parent="1" vertex="1">
          <mxGeometry x="150" y="470" width="30" height="30" as="geometry" />
        </mxCell>
        <mxCell id="DPbfkmQDcSMVqxTIG8kD-55" value="5" style="ellipse;whiteSpace=wrap;html=1;fillColor=#050505;fontColor=#FFFFFF;" parent="1" vertex="1">
          <mxGeometry x="510" y="660" width="30" height="30" as="geometry" />
        </mxCell>
        <mxCell id="DPbfkmQDcSMVqxTIG8kD-56" value="6" style="ellipse;whiteSpace=wrap;html=1;fillColor=#050505;fontColor=#FFFFFF;" parent="1" vertex="1">
          <mxGeometry x="510" y="850" width="30" height="30" as="geometry" />
        </mxCell>
        <mxCell id="DPbfkmQDcSMVqxTIG8kD-57" value="7" style="ellipse;whiteSpace=wrap;html=1;fillColor=#050505;fontColor=#FFFFFF;" parent="1" vertex="1">
          <mxGeometry x="310" y="1035" width="30" height="30" as="geometry" />
        </mxCell>
        <mxCell id="DPbfkmQDcSMVqxTIG8kD-58" value="8" style="ellipse;whiteSpace=wrap;html=1;fillColor=#050505;fontColor=#FFFFFF;" parent="1" vertex="1">
          <mxGeometry x="310" y="1255" width="30" height="30" as="geometry" />
        </mxCell>
        <mxCell id="DPbfkmQDcSMVqxTIG8kD-59" value="9" style="ellipse;whiteSpace=wrap;html=1;fillColor=#050505;fontColor=#FFFFFF;" parent="1" vertex="1">
          <mxGeometry x="-64" y="1255" width="30" height="30" as="geometry" />
        </mxCell>
        <mxCell id="DPbfkmQDcSMVqxTIG8kD-60" value="10" style="ellipse;whiteSpace=wrap;html=1;fillColor=#050505;fontColor=#FFFFFF;" parent="1" vertex="1">
          <mxGeometry x="710" y="1035" width="30" height="30" as="geometry" />
        </mxCell>
        <mxCell id="DPbfkmQDcSMVqxTIG8kD-61" value="11" style="ellipse;whiteSpace=wrap;html=1;fillColor=#050505;fontColor=#FFFFFF;" parent="1" vertex="1">
          <mxGeometry x="710" y="1255" width="30" height="30" as="geometry" />
        </mxCell>
      </root>
    </mxGraphModel>
  </diagram>
  <diagram id="zw-J9pUMtlnY6rIB39NP" name="recursion">
    <mxGraphModel dx="791" dy="880" grid="1" gridSize="10" guides="1" tooltips="1" connect="1" arrows="1" fold="1" page="1" pageScale="1" pageWidth="850" pageHeight="1100" math="0" shadow="0">
      <root>
        <mxCell id="0" />
        <mxCell id="1" parent="0" />
        <mxCell id="17-4vY2Y9s3TL2Skr1Br-1" value="True" style="edgeStyle=orthogonalEdgeStyle;rounded=0;orthogonalLoop=1;jettySize=auto;html=1;exitX=0.5;exitY=1;exitDx=0;exitDy=0;entryX=0.5;entryY=0;entryDx=0;entryDy=0;" edge="1" parent="1" source="17-4vY2Y9s3TL2Skr1Br-2">
          <mxGeometry relative="1" as="geometry">
            <mxPoint x="440.00000000000045" y="280" as="targetPoint" />
          </mxGeometry>
        </mxCell>
        <mxCell id="ViroQsK-lRKYKyJHAcqJ-3" value="" style="edgeStyle=orthogonalEdgeStyle;rounded=0;orthogonalLoop=1;jettySize=auto;html=1;" edge="1" parent="1" source="ViroQsK-lRKYKyJHAcqJ-1" target="ViroQsK-lRKYKyJHAcqJ-2">
          <mxGeometry relative="1" as="geometry">
            <Array as="points">
              <mxPoint x="540" y="160" />
              <mxPoint x="540" y="160" />
            </Array>
          </mxGeometry>
        </mxCell>
        <mxCell id="ViroQsK-lRKYKyJHAcqJ-4" value="True" style="edgeLabel;html=1;align=center;verticalAlign=middle;resizable=0;points=[];" vertex="1" connectable="0" parent="ViroQsK-lRKYKyJHAcqJ-3">
          <mxGeometry x="-0.2383" y="-1" relative="1" as="geometry">
            <mxPoint as="offset" />
          </mxGeometry>
        </mxCell>
        <mxCell id="ViroQsK-lRKYKyJHAcqJ-1" value="&lt;b&gt;Initialize&lt;/b&gt;: node" style="rounded=0;whiteSpace=wrap;html=1;" vertex="1" parent="1">
          <mxGeometry x="440" y="10" width="200" height="100" as="geometry" />
        </mxCell>
        <mxCell id="ViroQsK-lRKYKyJHAcqJ-7" value="" style="edgeStyle=orthogonalEdgeStyle;rounded=0;orthogonalLoop=1;jettySize=auto;html=1;" edge="1" parent="1" source="ViroQsK-lRKYKyJHAcqJ-2" target="ViroQsK-lRKYKyJHAcqJ-6">
          <mxGeometry relative="1" as="geometry">
            <Array as="points">
              <mxPoint x="540" y="340" />
              <mxPoint x="540" y="340" />
            </Array>
          </mxGeometry>
        </mxCell>
        <mxCell id="ViroQsK-lRKYKyJHAcqJ-8" value="True" style="edgeLabel;html=1;align=center;verticalAlign=middle;resizable=0;points=[];" vertex="1" connectable="0" parent="ViroQsK-lRKYKyJHAcqJ-7">
          <mxGeometry x="0.1299" relative="1" as="geometry">
            <mxPoint as="offset" />
          </mxGeometry>
        </mxCell>
        <mxCell id="ViroQsK-lRKYKyJHAcqJ-2" value="leaf = true&lt;br&gt;i = 0&lt;span style=&quot;white-space: pre;&quot;&gt;&#x9;&lt;/span&gt;" style="rounded=0;whiteSpace=wrap;html=1;" vertex="1" parent="1">
          <mxGeometry x="440" y="200" width="200" height="100" as="geometry" />
        </mxCell>
        <mxCell id="ViroQsK-lRKYKyJHAcqJ-10" value="" style="edgeStyle=orthogonalEdgeStyle;rounded=0;orthogonalLoop=1;jettySize=auto;html=1;" edge="1" parent="1" source="ViroQsK-lRKYKyJHAcqJ-6" target="ViroQsK-lRKYKyJHAcqJ-9">
          <mxGeometry relative="1" as="geometry" />
        </mxCell>
        <mxCell id="ViroQsK-lRKYKyJHAcqJ-11" value="&amp;nbsp;i &amp;lt; childs[node].size()" style="edgeLabel;html=1;align=center;verticalAlign=middle;resizable=0;points=[];" vertex="1" connectable="0" parent="ViroQsK-lRKYKyJHAcqJ-10">
          <mxGeometry x="-0.1545" y="1" relative="1" as="geometry">
            <mxPoint x="-1" as="offset" />
          </mxGeometry>
        </mxCell>
        <mxCell id="ViroQsK-lRKYKyJHAcqJ-31" value="" style="edgeStyle=orthogonalEdgeStyle;rounded=0;orthogonalLoop=1;jettySize=auto;html=1;" edge="1" parent="1" source="ViroQsK-lRKYKyJHAcqJ-6" target="ViroQsK-lRKYKyJHAcqJ-30">
          <mxGeometry relative="1" as="geometry" />
        </mxCell>
        <mxCell id="ViroQsK-lRKYKyJHAcqJ-32" value="&amp;nbsp;~(i &amp;lt; childs[node].size())" style="edgeLabel;html=1;align=center;verticalAlign=middle;resizable=0;points=[];" vertex="1" connectable="0" parent="ViroQsK-lRKYKyJHAcqJ-31">
          <mxGeometry x="-0.2893" relative="1" as="geometry">
            <mxPoint as="offset" />
          </mxGeometry>
        </mxCell>
        <mxCell id="ViroQsK-lRKYKyJHAcqJ-6" value="NULL" style="rounded=0;whiteSpace=wrap;html=1;" vertex="1" parent="1">
          <mxGeometry x="440" y="380" width="200" height="100" as="geometry" />
        </mxCell>
        <mxCell id="ViroQsK-lRKYKyJHAcqJ-19" value="" style="edgeStyle=orthogonalEdgeStyle;rounded=0;orthogonalLoop=1;jettySize=auto;html=1;" edge="1" parent="1" source="ViroQsK-lRKYKyJHAcqJ-9" target="ViroQsK-lRKYKyJHAcqJ-18">
          <mxGeometry relative="1" as="geometry">
            <Array as="points">
              <mxPoint x="120" y="510" />
              <mxPoint x="120" y="510" />
            </Array>
          </mxGeometry>
        </mxCell>
        <mxCell id="ViroQsK-lRKYKyJHAcqJ-20" value="True" style="edgeLabel;html=1;align=center;verticalAlign=middle;resizable=0;points=[];" vertex="1" connectable="0" parent="ViroQsK-lRKYKyJHAcqJ-19">
          <mxGeometry x="-0.1081" relative="1" as="geometry">
            <mxPoint as="offset" />
          </mxGeometry>
        </mxCell>
        <mxCell id="ViroQsK-lRKYKyJHAcqJ-9" value="leaf = false" style="rounded=0;whiteSpace=wrap;html=1;" vertex="1" parent="1">
          <mxGeometry x="20" y="380" width="200" height="100" as="geometry" />
        </mxCell>
        <mxCell id="ViroQsK-lRKYKyJHAcqJ-23" value="" style="edgeStyle=orthogonalEdgeStyle;rounded=0;orthogonalLoop=1;jettySize=auto;html=1;" edge="1" parent="1" source="ViroQsK-lRKYKyJHAcqJ-18" target="ViroQsK-lRKYKyJHAcqJ-22">
          <mxGeometry relative="1" as="geometry">
            <Array as="points">
              <mxPoint x="120" y="700" />
              <mxPoint x="120" y="700" />
            </Array>
          </mxGeometry>
        </mxCell>
        <mxCell id="ViroQsK-lRKYKyJHAcqJ-24" value="dp[childs[node][i]] == -1" style="edgeLabel;html=1;align=center;verticalAlign=middle;resizable=0;points=[];" vertex="1" connectable="0" parent="ViroQsK-lRKYKyJHAcqJ-23">
          <mxGeometry x="-0.1028" y="1" relative="1" as="geometry">
            <mxPoint as="offset" />
          </mxGeometry>
        </mxCell>
        <mxCell id="ViroQsK-lRKYKyJHAcqJ-25" value="&lt;br&gt;&lt;span style=&quot;color: rgb(0, 0, 0); font-family: Helvetica; font-size: 11px; font-style: normal; font-variant-ligatures: normal; font-variant-caps: normal; font-weight: 400; letter-spacing: normal; orphans: 2; text-align: center; text-indent: 0px; text-transform: none; widows: 2; word-spacing: 0px; -webkit-text-stroke-width: 0px; background-color: rgb(255, 255, 255); text-decoration-thickness: initial; text-decoration-style: initial; text-decoration-color: initial; float: none; display: inline !important;&quot;&gt;~(dp[childs[node][i]] == -1)&lt;/span&gt;&lt;br&gt;" style="edgeStyle=orthogonalEdgeStyle;rounded=0;orthogonalLoop=1;jettySize=auto;html=1;" edge="1" parent="1" source="ViroQsK-lRKYKyJHAcqJ-18" target="ViroQsK-lRKYKyJHAcqJ-6">
          <mxGeometry relative="1" as="geometry">
            <mxPoint x="440" y="450" as="targetPoint" />
            <Array as="points">
              <mxPoint x="330" y="610" />
              <mxPoint x="330" y="440" />
            </Array>
          </mxGeometry>
        </mxCell>
        <mxCell id="ViroQsK-lRKYKyJHAcqJ-18" value="NULL" style="rounded=0;whiteSpace=wrap;html=1;" vertex="1" parent="1">
          <mxGeometry x="20" y="560" width="200" height="100" as="geometry" />
        </mxCell>
        <mxCell id="ViroQsK-lRKYKyJHAcqJ-26" style="edgeStyle=orthogonalEdgeStyle;rounded=0;orthogonalLoop=1;jettySize=auto;html=1;" edge="1" parent="1" source="ViroQsK-lRKYKyJHAcqJ-22" target="ViroQsK-lRKYKyJHAcqJ-6">
          <mxGeometry relative="1" as="geometry">
            <Array as="points">
              <mxPoint x="400" y="790" />
              <mxPoint x="400" y="450" />
            </Array>
          </mxGeometry>
        </mxCell>
        <mxCell id="ViroQsK-lRKYKyJHAcqJ-27" value="True" style="edgeLabel;html=1;align=center;verticalAlign=middle;resizable=0;points=[];" vertex="1" connectable="0" parent="ViroQsK-lRKYKyJHAcqJ-26">
          <mxGeometry x="0.3819" y="2" relative="1" as="geometry">
            <mxPoint as="offset" />
          </mxGeometry>
        </mxCell>
        <mxCell id="ViroQsK-lRKYKyJHAcqJ-22" value="recursion(childs[node][i])" style="rounded=0;whiteSpace=wrap;html=1;" vertex="1" parent="1">
          <mxGeometry x="20" y="740" width="200" height="100" as="geometry" />
        </mxCell>
        <mxCell id="ViroQsK-lRKYKyJHAcqJ-34" value="" style="edgeStyle=orthogonalEdgeStyle;rounded=0;orthogonalLoop=1;jettySize=auto;html=1;" edge="1" parent="1" source="ViroQsK-lRKYKyJHAcqJ-30" target="ViroQsK-lRKYKyJHAcqJ-33">
          <mxGeometry relative="1" as="geometry" />
        </mxCell>
        <mxCell id="ViroQsK-lRKYKyJHAcqJ-37" value="~(leaf)" style="edgeLabel;html=1;align=center;verticalAlign=middle;resizable=0;points=[];" vertex="1" connectable="0" parent="ViroQsK-lRKYKyJHAcqJ-34">
          <mxGeometry x="-0.21" relative="1" as="geometry">
            <mxPoint as="offset" />
          </mxGeometry>
        </mxCell>
        <mxCell id="ViroQsK-lRKYKyJHAcqJ-36" value="" style="edgeStyle=orthogonalEdgeStyle;rounded=0;orthogonalLoop=1;jettySize=auto;html=1;" edge="1" parent="1" source="ViroQsK-lRKYKyJHAcqJ-30" target="ViroQsK-lRKYKyJHAcqJ-35">
          <mxGeometry relative="1" as="geometry">
            <Array as="points">
              <mxPoint x="680" y="610" />
              <mxPoint x="680" y="610" />
            </Array>
          </mxGeometry>
        </mxCell>
        <mxCell id="ViroQsK-lRKYKyJHAcqJ-38" value="leaf" style="edgeLabel;html=1;align=center;verticalAlign=middle;resizable=0;points=[];" vertex="1" connectable="0" parent="ViroQsK-lRKYKyJHAcqJ-36">
          <mxGeometry x="-0.1637" y="-1" relative="1" as="geometry">
            <mxPoint as="offset" />
          </mxGeometry>
        </mxCell>
        <mxCell id="ViroQsK-lRKYKyJHAcqJ-30" value="NULL" style="rounded=0;whiteSpace=wrap;html=1;" vertex="1" parent="1">
          <mxGeometry x="440" y="560" width="200" height="100" as="geometry" />
        </mxCell>
        <mxCell id="ViroQsK-lRKYKyJHAcqJ-43" value="" style="edgeStyle=orthogonalEdgeStyle;rounded=0;orthogonalLoop=1;jettySize=auto;html=1;" edge="1" parent="1" source="ViroQsK-lRKYKyJHAcqJ-33" target="ViroQsK-lRKYKyJHAcqJ-42">
          <mxGeometry relative="1" as="geometry">
            <Array as="points">
              <mxPoint x="540" y="900" />
              <mxPoint x="540" y="900" />
            </Array>
          </mxGeometry>
        </mxCell>
        <mxCell id="ViroQsK-lRKYKyJHAcqJ-44" value="True" style="edgeLabel;html=1;align=center;verticalAlign=middle;resizable=0;points=[];" vertex="1" connectable="0" parent="ViroQsK-lRKYKyJHAcqJ-43">
          <mxGeometry x="-0.104" y="1" relative="1" as="geometry">
            <mxPoint x="-6" y="-1" as="offset" />
          </mxGeometry>
        </mxCell>
        <mxCell id="ViroQsK-lRKYKyJHAcqJ-33" value="max_time = 0&lt;br&gt;i = 0" style="rounded=0;whiteSpace=wrap;html=1;" vertex="1" parent="1">
          <mxGeometry x="440" y="740" width="200" height="100" as="geometry" />
        </mxCell>
        <mxCell id="ViroQsK-lRKYKyJHAcqJ-40" value="" style="edgeStyle=orthogonalEdgeStyle;rounded=0;orthogonalLoop=1;jettySize=auto;html=1;" edge="1" parent="1" source="ViroQsK-lRKYKyJHAcqJ-35" target="ViroQsK-lRKYKyJHAcqJ-39">
          <mxGeometry relative="1" as="geometry" />
        </mxCell>
        <mxCell id="ViroQsK-lRKYKyJHAcqJ-41" value="True" style="edgeLabel;html=1;align=center;verticalAlign=middle;resizable=0;points=[];" vertex="1" connectable="0" parent="ViroQsK-lRKYKyJHAcqJ-40">
          <mxGeometry x="-0.2652" y="3" relative="1" as="geometry">
            <mxPoint as="offset" />
          </mxGeometry>
        </mxCell>
        <mxCell id="ViroQsK-lRKYKyJHAcqJ-35" value="dp[node] = time_[node]" style="rounded=0;whiteSpace=wrap;html=1;" vertex="1" parent="1">
          <mxGeometry x="790" y="560" width="200" height="100" as="geometry" />
        </mxCell>
        <mxCell id="ViroQsK-lRKYKyJHAcqJ-39" value="return" style="rounded=0;whiteSpace=wrap;html=1;" vertex="1" parent="1">
          <mxGeometry x="790" y="740" width="200" height="100" as="geometry" />
        </mxCell>
        <mxCell id="ViroQsK-lRKYKyJHAcqJ-46" value="" style="edgeStyle=orthogonalEdgeStyle;rounded=0;orthogonalLoop=1;jettySize=auto;html=1;" edge="1" parent="1" source="ViroQsK-lRKYKyJHAcqJ-42" target="ViroQsK-lRKYKyJHAcqJ-45">
          <mxGeometry relative="1" as="geometry" />
        </mxCell>
        <mxCell id="ViroQsK-lRKYKyJHAcqJ-50" value="i &amp;lt; childs[node].size()" style="edgeLabel;html=1;align=center;verticalAlign=middle;resizable=0;points=[];" vertex="1" connectable="0" parent="ViroQsK-lRKYKyJHAcqJ-46">
          <mxGeometry x="-0.2065" y="2" relative="1" as="geometry">
            <mxPoint as="offset" />
          </mxGeometry>
        </mxCell>
        <mxCell id="ViroQsK-lRKYKyJHAcqJ-58" value="" style="edgeStyle=orthogonalEdgeStyle;rounded=0;orthogonalLoop=1;jettySize=auto;html=1;" edge="1" parent="1" source="ViroQsK-lRKYKyJHAcqJ-42" target="ViroQsK-lRKYKyJHAcqJ-57">
          <mxGeometry relative="1" as="geometry" />
        </mxCell>
        <mxCell id="ViroQsK-lRKYKyJHAcqJ-59" value="~(i &amp;lt; childs[node].size())" style="edgeLabel;html=1;align=center;verticalAlign=middle;resizable=0;points=[];" vertex="1" connectable="0" parent="ViroQsK-lRKYKyJHAcqJ-58">
          <mxGeometry x="-0.0477" relative="1" as="geometry">
            <mxPoint x="-3" as="offset" />
          </mxGeometry>
        </mxCell>
        <mxCell id="ViroQsK-lRKYKyJHAcqJ-42" value="NULL" style="rounded=0;whiteSpace=wrap;html=1;" vertex="1" parent="1">
          <mxGeometry x="437.78" y="920" width="200" height="100" as="geometry" />
        </mxCell>
        <mxCell id="ViroQsK-lRKYKyJHAcqJ-48" value="" style="edgeStyle=orthogonalEdgeStyle;rounded=0;orthogonalLoop=1;jettySize=auto;html=1;" edge="1" parent="1" source="ViroQsK-lRKYKyJHAcqJ-45" target="ViroQsK-lRKYKyJHAcqJ-47">
          <mxGeometry relative="1" as="geometry">
            <Array as="points">
              <mxPoint x="890" y="1150" />
            </Array>
          </mxGeometry>
        </mxCell>
        <mxCell id="ViroQsK-lRKYKyJHAcqJ-52" value="max_time &amp;lt; dp[childs[node][i]]" style="edgeLabel;html=1;align=center;verticalAlign=middle;resizable=0;points=[];" vertex="1" connectable="0" parent="ViroQsK-lRKYKyJHAcqJ-48">
          <mxGeometry x="-0.263" relative="1" as="geometry">
            <mxPoint x="15" as="offset" />
          </mxGeometry>
        </mxCell>
        <mxCell id="ViroQsK-lRKYKyJHAcqJ-49" value="" style="edgeStyle=orthogonalEdgeStyle;rounded=0;orthogonalLoop=1;jettySize=auto;html=1;" edge="1" parent="1" source="ViroQsK-lRKYKyJHAcqJ-45" target="ViroQsK-lRKYKyJHAcqJ-42">
          <mxGeometry relative="1" as="geometry">
            <Array as="points">
              <mxPoint x="700" y="1130" />
              <mxPoint x="700" y="980" />
            </Array>
          </mxGeometry>
        </mxCell>
        <mxCell id="ViroQsK-lRKYKyJHAcqJ-54" value="~(max_time &amp;lt; dp[childs[node][i]])" style="edgeLabel;html=1;align=center;verticalAlign=middle;resizable=0;points=[];" vertex="1" connectable="0" parent="ViroQsK-lRKYKyJHAcqJ-49">
          <mxGeometry x="0.0649" y="-1" relative="1" as="geometry">
            <mxPoint as="offset" />
          </mxGeometry>
        </mxCell>
        <mxCell id="ViroQsK-lRKYKyJHAcqJ-45" value="NULL" style="rounded=0;whiteSpace=wrap;html=1;" vertex="1" parent="1">
          <mxGeometry x="437.78" y="1100" width="200" height="100" as="geometry" />
        </mxCell>
        <mxCell id="ViroQsK-lRKYKyJHAcqJ-53" style="edgeStyle=orthogonalEdgeStyle;rounded=0;orthogonalLoop=1;jettySize=auto;html=1;entryX=0.998;entryY=0.402;entryDx=0;entryDy=0;entryPerimeter=0;" edge="1" parent="1" source="ViroQsK-lRKYKyJHAcqJ-47" target="ViroQsK-lRKYKyJHAcqJ-42">
          <mxGeometry relative="1" as="geometry">
            <Array as="points">
              <mxPoint x="890" y="960" />
            </Array>
          </mxGeometry>
        </mxCell>
        <mxCell id="ViroQsK-lRKYKyJHAcqJ-56" value="True" style="edgeLabel;html=1;align=center;verticalAlign=middle;resizable=0;points=[];" vertex="1" connectable="0" parent="ViroQsK-lRKYKyJHAcqJ-53">
          <mxGeometry x="-0.6004" y="-1" relative="1" as="geometry">
            <mxPoint x="-103" y="1" as="offset" />
          </mxGeometry>
        </mxCell>
        <mxCell id="ViroQsK-lRKYKyJHAcqJ-47" value="max_time = dp[childs[node][i]]" style="rounded=0;whiteSpace=wrap;html=1;" vertex="1" parent="1">
          <mxGeometry x="790" y="1000" width="200" height="100" as="geometry" />
        </mxCell>
        <mxCell id="ViroQsK-lRKYKyJHAcqJ-61" value="" style="edgeStyle=orthogonalEdgeStyle;rounded=0;orthogonalLoop=1;jettySize=auto;html=1;" edge="1" parent="1" source="ViroQsK-lRKYKyJHAcqJ-57" target="ViroQsK-lRKYKyJHAcqJ-60">
          <mxGeometry relative="1" as="geometry" />
        </mxCell>
        <mxCell id="ViroQsK-lRKYKyJHAcqJ-62" value="True" style="edgeLabel;html=1;align=center;verticalAlign=middle;resizable=0;points=[];" vertex="1" connectable="0" parent="ViroQsK-lRKYKyJHAcqJ-61">
          <mxGeometry x="-0.1732" y="-1" relative="1" as="geometry">
            <mxPoint as="offset" />
          </mxGeometry>
        </mxCell>
        <mxCell id="ViroQsK-lRKYKyJHAcqJ-57" value="dp[node] = max_time + time_[node]" style="rounded=0;whiteSpace=wrap;html=1;" vertex="1" parent="1">
          <mxGeometry x="20" y="920" width="200" height="100" as="geometry" />
        </mxCell>
        <mxCell id="ViroQsK-lRKYKyJHAcqJ-60" value="return" style="rounded=0;whiteSpace=wrap;html=1;" vertex="1" parent="1">
          <mxGeometry x="20" y="1100" width="200" height="100" as="geometry" />
        </mxCell>
        <mxCell id="ViroQsK-lRKYKyJHAcqJ-63" value="1" style="ellipse;whiteSpace=wrap;html=1;fillColor=#050505;fontColor=#FFFFFF;" vertex="1" parent="1">
          <mxGeometry x="607.78" y="10" width="30" height="30" as="geometry" />
        </mxCell>
        <mxCell id="ViroQsK-lRKYKyJHAcqJ-64" value="2" style="ellipse;whiteSpace=wrap;html=1;fillColor=#050505;fontColor=#FFFFFF;" vertex="1" parent="1">
          <mxGeometry x="607.78" y="200" width="30" height="30" as="geometry" />
        </mxCell>
        <mxCell id="ViroQsK-lRKYKyJHAcqJ-65" value="3" style="ellipse;whiteSpace=wrap;html=1;fillColor=#050505;fontColor=#FFFFFF;" vertex="1" parent="1">
          <mxGeometry x="607.78" y="380" width="30" height="30" as="geometry" />
        </mxCell>
        <mxCell id="ViroQsK-lRKYKyJHAcqJ-66" value="4" style="ellipse;whiteSpace=wrap;html=1;fillColor=#050505;fontColor=#FFFFFF;" vertex="1" parent="1">
          <mxGeometry x="190" y="380" width="30" height="30" as="geometry" />
        </mxCell>
        <mxCell id="ViroQsK-lRKYKyJHAcqJ-67" value="5" style="ellipse;whiteSpace=wrap;html=1;fillColor=#050505;fontColor=#FFFFFF;" vertex="1" parent="1">
          <mxGeometry x="190" y="560" width="30" height="30" as="geometry" />
        </mxCell>
        <mxCell id="ViroQsK-lRKYKyJHAcqJ-68" value="7" style="ellipse;whiteSpace=wrap;html=1;fillColor=#050505;fontColor=#FFFFFF;" vertex="1" parent="1">
          <mxGeometry x="607.78" y="560" width="30" height="30" as="geometry" />
        </mxCell>
        <mxCell id="ViroQsK-lRKYKyJHAcqJ-69" value="6" style="ellipse;whiteSpace=wrap;html=1;fillColor=#050505;fontColor=#FFFFFF;" vertex="1" parent="1">
          <mxGeometry x="190" y="740" width="30" height="30" as="geometry" />
        </mxCell>
        <mxCell id="ViroQsK-lRKYKyJHAcqJ-70" value="8" style="ellipse;whiteSpace=wrap;html=1;fillColor=#050505;fontColor=#FFFFFF;" vertex="1" parent="1">
          <mxGeometry x="960" y="560" width="30" height="30" as="geometry" />
        </mxCell>
        <mxCell id="ViroQsK-lRKYKyJHAcqJ-71" value="9" style="ellipse;whiteSpace=wrap;html=1;fillColor=#050505;fontColor=#FFFFFF;" vertex="1" parent="1">
          <mxGeometry x="960" y="740" width="30" height="30" as="geometry" />
        </mxCell>
        <mxCell id="ViroQsK-lRKYKyJHAcqJ-72" value="10" style="ellipse;whiteSpace=wrap;html=1;fillColor=#050505;fontColor=#FFFFFF;" vertex="1" parent="1">
          <mxGeometry x="610" y="740" width="30" height="30" as="geometry" />
        </mxCell>
        <mxCell id="ViroQsK-lRKYKyJHAcqJ-73" value="11" style="ellipse;whiteSpace=wrap;html=1;fillColor=#050505;fontColor=#FFFFFF;" vertex="1" parent="1">
          <mxGeometry x="607.78" y="920" width="30" height="30" as="geometry" />
        </mxCell>
        <mxCell id="ViroQsK-lRKYKyJHAcqJ-74" value="12" style="ellipse;whiteSpace=wrap;html=1;fillColor=#050505;fontColor=#FFFFFF;" vertex="1" parent="1">
          <mxGeometry x="607.78" y="1100" width="30" height="30" as="geometry" />
        </mxCell>
        <mxCell id="ViroQsK-lRKYKyJHAcqJ-75" value="13" style="ellipse;whiteSpace=wrap;html=1;fillColor=#050505;fontColor=#FFFFFF;" vertex="1" parent="1">
          <mxGeometry x="960" y="1000" width="30" height="30" as="geometry" />
        </mxCell>
        <mxCell id="ViroQsK-lRKYKyJHAcqJ-76" value="14" style="ellipse;whiteSpace=wrap;html=1;fillColor=#050505;fontColor=#FFFFFF;" vertex="1" parent="1">
          <mxGeometry x="190" y="920" width="30" height="30" as="geometry" />
        </mxCell>
        <mxCell id="ViroQsK-lRKYKyJHAcqJ-77" value="15" style="ellipse;whiteSpace=wrap;html=1;fillColor=#050505;fontColor=#FFFFFF;" vertex="1" parent="1">
          <mxGeometry x="190" y="1100" width="30" height="30" as="geometry" />
        </mxCell>
      </root>
    </mxGraphModel>
  </diagram>
</mxfile>
